<?xml version="1.0" encoding="utf-8"?>
<!-- Generator: Adobe Illustrator 26.0.0, SVG Export Plug-In . SVG Version: 6.00 Build 0)  -->
<svg version="1.1" id="Layer_1" xmlns="http://www.w3.org/2000/svg" xmlns:xlink="http://www.w3.org/1999/xlink" x="0px" y="0px"
	 viewBox="0 0 90.1 87.9" style="enable-background:new 0 0 90.1 87.9;" xml:space="preserve">
<style type="text/css">
	.st0{fill:#F1F0F1;}
</style>
<path class="st0" d="M73.9,48.9c0.5-1,1.1-2,1.6-3c8-15.2,6.6-21.2,5-23.4c-1.9-2.7-6.4-4-13.7-4c-4.3,0-9.3,0.5-14.3,1.4
	c-0.9-4.7-2.2-8.8-3.5-12c-1.8-4.2-3.9-6.7-6.1-7.5C42.2,0.1,41.4,0,40.7,0c-4.9,0-13.1,5.8-22.4,15.8C8.2,26.6,2.1,37.1,0.4,46.2
	c-1.6,8.7,0.7,20.5,12,27.5c1.1,2.3,2.5,4.4,4.3,6.2c5.2,5.3,13,8,23.2,8c9.5,0,21.5-2.7,32.2-7.1c5-2.1,9.3-4.5,12.4-6.8
	c3.6-2.8,5.5-5.4,5.6-8c0.1-2.3-1.3-4.9-4.2-7.9C83.1,55.2,78.8,52,73.9,48.9z M66.8,25c6,0,7.9,1,8.3,1.2c0.3,0.9,0.1,6.1-5.5,16.7
	c-0.5,0.9-1,1.8-1.5,2.7c-4.4-2.4-9.1-4.5-13.6-6.1c-0.1-4.3-0.4-8.8-1-13.1C58.3,25.5,62.9,25,66.8,25z M53.5,54.4
	c0.4-2.5,0.7-5.2,0.9-8.1c3.4,1.4,7,3,10.3,4.8c-3.5,5.3-7.4,10-11.3,13.7c-1.7,1.6-3.3,2.9-5,4.1C50.8,65.1,52.5,60.2,53.5,54.4z
	 M48,37.3c-5.3-1.5-10.1-2.2-14.4-2.2c-2.4,0-4.7,0.2-6.8,0.7c4.1-2.5,8.5-4.3,11.6-5.5c2.8-1,5.7-1.9,8.8-2.6
	C47.6,30.9,47.9,34.1,48,37.3z M11.6,42.5c-1.2,2.4-2.5,4.9-2.9,7.5l-0.1,0.3c-0.2,1.3-0.8,4.4-0.1,8.6C6.9,55,6.1,51.7,6.9,47.4
	c1.4-7.1,6.7-16.4,16.6-27.6C27,16,30.7,12.5,34,10c2.9-2.1,5.4-3.5,6.6-3.5c1.1,0.6,3.6,5.6,5.4,14.7c-7.5,1.8-14.4,4.4-20.1,7.5
	C19.2,32.5,14.4,37,11.6,42.5z M18.2,67.9c-2.1-3.2-3.1-6.9-3-11.6v0c0-1.9,1.1-7.2,4.4-10.5c2.7-2.7,7.5-4.2,14-4.2
	c4.2,0,9.1,0.8,14.4,2.4c-0.1,3.3-0.4,6.4-0.9,9.2c-2.4,13.4-7.8,20.2-16.2,20.2C27.5,73.5,21,72,18.2,67.9z M69.9,74.5
	c-10,4.4-20.9,6.9-30,6.9c-3.4,0-6.5-0.3-9.2-1c2.5,0.3,4.2,0.3,4.4,0.2c5.1,0,11-2.2,16.8-6.1c6.7-4.6,13-11.3,18.6-20
	c4.4,2.8,8.2,5.7,10.6,8.2c1.8,1.8,2.3,2.9,2.4,3.2C83.4,66.4,79.9,70.1,69.9,74.5z"/>
</svg>
